<?xml version="1.0" encoding="utf-8"?>
<!-- Generator: Adobe Illustrator 26.1.0, SVG Export Plug-In . SVG Version: 6.00 Build 0)  -->
<svg version="1.1" id="Camada_1" xmlns="http://www.w3.org/2000/svg" xmlns:xlink="http://www.w3.org/1999/xlink" x="0px" y="0px"
	 viewBox="0 0 300 40" style="enable-background:new 0 0 300 40;" xml:space="preserve">
<style type="text/css">
	.st0{fill:#EFEFEF;}
	.st1{fill:#8E8E8E;}
	.st2{enable-background:new    ;}
</style>
<path class="st0" d="M276.02,38.5H22.98c-4.13,0-7.48-3.35-7.48-7.48V9.98c0-4.13,3.35-7.48,7.48-7.48h253.04
	c4.13,0,7.48,3.35,7.48,7.48v21.04C283.5,35.15,280.15,38.5,276.02,38.5z"/>
<path class="st1" d="M48.45,30.5l-6.26-6.26c-0.48,0.41-1.03,0.73-1.67,0.96s-1.31,0.35-2.02,0.35c-2.48,0-4.42-1.25-5.8-3.75
	c-0.75-2.73-0.27-4.95,1.45-6.66c1.71-1.71,3.94-2.19,6.69-1.45c2.48,1.4,3.71,3.32,3.71,5.76c0,0.68-0.11,1.34-0.33,1.98
	s-0.56,1.23-1,1.79l6.29,6.24L48.45,30.5z M38.47,24.12c1.29,0,2.38-0.46,3.29-1.37c0.91-0.91,1.36-2.01,1.36-3.3
	s-0.45-2.39-1.36-3.3s-2-1.37-3.29-1.37c-1.3,0-2.41,0.46-3.32,1.37s-1.37,2.01-1.37,3.3s0.46,2.39,1.37,3.3
	S37.17,24.12,38.47,24.12z"/>
<g class="st2">
	<path class="st1" d="M60.06,27.29V15.24h4.3c0.76,0,1.33,0.04,1.73,0.11c0.56,0.1,1.03,0.29,1.41,0.56
		c0.38,0.28,0.68,0.66,0.91,1.16s0.35,1.05,0.35,1.64c0,1.02-0.31,1.89-0.92,2.6c-0.62,0.71-1.73,1.06-3.34,1.06h-2.92v4.9H60.06z
		 M61.57,20.97h2.94c0.97,0,1.67-0.19,2.07-0.58c0.41-0.38,0.61-0.92,0.61-1.62c0-0.5-0.12-0.94-0.36-1.29
		c-0.24-0.36-0.56-0.6-0.95-0.71c-0.25-0.07-0.72-0.11-1.41-0.11h-2.91V20.97z"/>
	<path class="st1" d="M76.15,24.48l1.45,0.19c-0.23,0.89-0.65,1.59-1.27,2.08c-0.62,0.49-1.4,0.74-2.36,0.74
		c-1.21,0-2.16-0.39-2.87-1.18s-1.06-1.89-1.06-3.31c0-1.47,0.36-2.61,1.07-3.42s1.64-1.22,2.78-1.22c1.1,0,2,0.4,2.7,1.19
		c0.7,0.79,1.05,1.91,1.05,3.35c0,0.09,0,0.22-0.01,0.39h-6.15c0.05,0.96,0.31,1.69,0.77,2.2s1.04,0.76,1.73,0.76
		c0.51,0,0.95-0.14,1.31-0.43C75.65,25.56,75.94,25.11,76.15,24.48z M71.56,22.09h4.61c-0.06-0.73-0.24-1.28-0.53-1.65
		c-0.45-0.57-1.02-0.85-1.73-0.85c-0.64,0-1.18,0.23-1.62,0.68C71.85,20.72,71.6,21.33,71.56,22.09z"/>
	<path class="st1" d="M78.79,24.69l1.38-0.23c0.08,0.59,0.29,1.04,0.65,1.35s0.85,0.47,1.49,0.47c0.64,0,1.12-0.14,1.43-0.42
		c0.31-0.28,0.47-0.6,0.47-0.97c0-0.33-0.14-0.6-0.41-0.79c-0.19-0.13-0.67-0.3-1.43-0.5c-1.03-0.27-1.74-0.51-2.13-0.71
		c-0.4-0.2-0.7-0.48-0.9-0.83c-0.21-0.35-0.31-0.74-0.31-1.17c0-0.39,0.08-0.75,0.25-1.08s0.4-0.61,0.69-0.83
		c0.22-0.17,0.51-0.31,0.89-0.43c0.38-0.12,0.78-0.18,1.21-0.18c0.65,0,1.22,0.1,1.71,0.3c0.49,0.2,0.85,0.46,1.08,0.8
		c0.23,0.34,0.39,0.79,0.48,1.35l-1.37,0.2c-0.06-0.45-0.24-0.8-0.54-1.05s-0.72-0.38-1.26-0.38c-0.64,0-1.1,0.11-1.38,0.34
		c-0.27,0.22-0.41,0.49-0.41,0.79c0,0.19,0.06,0.36,0.17,0.52c0.11,0.16,0.29,0.29,0.54,0.39c0.14,0.05,0.55,0.18,1.24,0.38
		c0.99,0.28,1.68,0.51,2.07,0.69s0.7,0.44,0.92,0.78c0.22,0.34,0.33,0.76,0.33,1.27c0,0.49-0.14,0.96-0.41,1.39
		s-0.66,0.77-1.18,1.01c-0.51,0.24-1.09,0.36-1.74,0.36c-1.07,0-1.89-0.24-2.45-0.71C79.31,26.31,78.95,25.61,78.79,24.69z"/>
	<path class="st1" d="M92.57,30.64v-4.27c-0.22,0.32-0.52,0.59-0.91,0.8c-0.39,0.21-0.81,0.32-1.25,0.32
		c-0.98,0-1.82-0.41-2.53-1.24s-1.06-1.96-1.06-3.4c0-0.88,0.14-1.66,0.43-2.36c0.29-0.7,0.7-1.22,1.25-1.58s1.15-0.54,1.8-0.54
		c1.02,0,1.82,0.46,2.41,1.36v-1.17h1.26v12.08H92.57z M88.26,22.9c0,1.12,0.22,1.97,0.67,2.53c0.45,0.56,0.98,0.84,1.6,0.84
		c0.6,0,1.11-0.27,1.54-0.8c0.43-0.53,0.65-1.35,0.65-2.44c0-1.16-0.23-2.04-0.68-2.62c-0.45-0.59-0.99-0.88-1.6-0.88
		c-0.61,0-1.12,0.27-1.54,0.82S88.26,21.75,88.26,22.9z"/>
	<path class="st1" d="M101.57,27.29v-1.28c-0.64,0.99-1.52,1.48-2.62,1.48c-0.49,0-0.94-0.1-1.36-0.3c-0.42-0.2-0.74-0.45-0.94-0.74
		s-0.35-0.66-0.43-1.1c-0.06-0.29-0.09-0.75-0.09-1.38v-5.41h1.4v4.84c0,0.77,0.03,1.29,0.09,1.56c0.09,0.39,0.27,0.69,0.56,0.92
		c0.29,0.22,0.64,0.33,1.06,0.33c0.42,0,0.81-0.11,1.18-0.34c0.37-0.23,0.63-0.54,0.78-0.93c0.15-0.39,0.23-0.96,0.23-1.71v-4.68
		h1.4v8.73H101.57z"/>
	<path class="st1" d="M105.02,16.94v-1.7h1.4v1.7H105.02z M105.02,27.29v-8.73h1.4v8.73H105.02z"/>
	<path class="st1" d="M107.99,24.69l1.38-0.23c0.08,0.59,0.29,1.04,0.65,1.35s0.85,0.47,1.49,0.47c0.64,0,1.12-0.14,1.43-0.42
		c0.31-0.28,0.47-0.6,0.47-0.97c0-0.33-0.14-0.6-0.41-0.79c-0.19-0.13-0.67-0.3-1.43-0.5c-1.03-0.27-1.74-0.51-2.13-0.71
		c-0.4-0.2-0.7-0.48-0.9-0.83c-0.21-0.35-0.31-0.74-0.31-1.17c0-0.39,0.08-0.75,0.25-1.08s0.4-0.61,0.69-0.83
		c0.22-0.17,0.51-0.31,0.89-0.43c0.38-0.12,0.78-0.18,1.21-0.18c0.65,0,1.22,0.1,1.71,0.3c0.49,0.2,0.85,0.46,1.08,0.8
		c0.23,0.34,0.39,0.79,0.48,1.35l-1.37,0.2c-0.06-0.45-0.24-0.8-0.54-1.05s-0.72-0.38-1.26-0.38c-0.64,0-1.1,0.11-1.38,0.34
		c-0.27,0.22-0.41,0.49-0.41,0.79c0,0.19,0.06,0.36,0.17,0.52c0.11,0.16,0.29,0.29,0.54,0.39c0.14,0.05,0.55,0.18,1.24,0.38
		c0.99,0.28,1.68,0.51,2.07,0.69s0.7,0.44,0.92,0.78c0.22,0.34,0.33,0.76,0.33,1.27c0,0.49-0.14,0.96-0.41,1.39
		s-0.66,0.77-1.18,1.01c-0.51,0.24-1.09,0.36-1.74,0.36c-1.07,0-1.89-0.24-2.45-0.71C108.5,26.31,108.14,25.61,107.99,24.69z"/>
	<path class="st1" d="M121.89,26.21c-0.52,0.47-1.02,0.79-1.5,0.99c-0.48,0.19-0.99,0.29-1.54,0.29c-0.91,0-1.6-0.23-2.09-0.7
		c-0.49-0.47-0.73-1.07-0.73-1.8c0-0.43,0.09-0.82,0.28-1.17c0.18-0.35,0.42-0.64,0.72-0.85c0.3-0.21,0.63-0.38,1.01-0.49
		c0.27-0.08,0.69-0.15,1.24-0.22c1.13-0.14,1.96-0.31,2.49-0.51c0.01-0.2,0.01-0.33,0.01-0.39c0-0.6-0.13-1.03-0.4-1.27
		c-0.36-0.33-0.89-0.5-1.59-0.5c-0.66,0-1.14,0.12-1.46,0.37c-0.31,0.24-0.55,0.68-0.7,1.29l-1.37-0.2c0.12-0.62,0.33-1.12,0.61-1.5
		c0.29-0.38,0.7-0.67,1.24-0.88c0.54-0.21,1.16-0.31,1.87-0.31c0.7,0,1.28,0.09,1.72,0.26s0.76,0.4,0.97,0.66
		c0.21,0.27,0.35,0.6,0.44,1.01c0.05,0.25,0.07,0.71,0.07,1.36v1.97c0,1.38,0.03,2.25,0.09,2.61c0.06,0.36,0.18,0.71,0.35,1.05
		h-1.46C122.02,26.99,121.93,26.63,121.89,26.21z M121.77,22.91c-0.51,0.22-1.27,0.41-2.28,0.56c-0.57,0.09-0.98,0.19-1.22,0.3
		s-0.42,0.27-0.55,0.48s-0.19,0.45-0.19,0.7c0,0.39,0.14,0.72,0.42,0.99c0.28,0.26,0.7,0.39,1.24,0.39c0.54,0,1.02-0.12,1.44-0.37
		s0.73-0.59,0.92-1.02c0.15-0.33,0.23-0.83,0.23-1.48V22.91z"/>
	<path class="st1" d="M125.34,27.29v-8.73h1.26v1.32c0.32-0.62,0.62-1.03,0.89-1.23s0.57-0.3,0.9-0.3c0.47,0,0.95,0.16,1.44,0.48
		l-0.48,1.37c-0.34-0.21-0.68-0.32-1.03-0.32c-0.31,0-0.58,0.1-0.82,0.29c-0.24,0.19-0.42,0.46-0.52,0.81
		c-0.16,0.53-0.23,1.1-0.23,1.73v4.57H125.34z"/>
</g>
</svg>
